<svg width="1601" height="1397" viewBox="0 0 1601 1397" fill="none" xmlns="http://www.w3.org/2000/svg">
<mask id="mask0_4347_21393" style="mask-type:alpha" maskUnits="userSpaceOnUse" x="0" y="0" width="1601" height="1397">
<path d="M1600.42 0.050293H0.475586V1396.93H1600.42V0.050293Z" fill="#D9D9D9"/>
</mask>
<g mask="url(#mask0_4347_21393)">
<mask id="mask1_4347_21393" style="mask-type:alpha" maskUnits="userSpaceOnUse" x="-64" y="17" width="2578" height="1427">
<path d="M2465.71 92.1229C2333.41 93.7698 2084.54 111.079 1860.38 126.668C1655.29 140.933 1470.88 153.758 1415.43 151.827C1300.73 147.888 1193.31 130.584 1087.57 109.776C1048.44 102.08 1009.51 93.8881 970.541 85.6864C963.741 84.2555 956.94 82.8243 950.138 81.3954C930.391 77.2674 910.612 73.1829 890.8 69.1419C822.032 55.2212 752.483 42.3595 680.619 33.2456C571.78 19.6226 458.344 14.8528 344.792 19.1175C251.915 22.1866 199.893 26.5598 107.174 40.6315C58.3728 47.744 10.5486 56.4949 -35.9505 66.8149L-63.2266 1443.91L2513.54 1420.05L2465.71 92.1229Z" fill="#134A45"/>
</mask>
<g mask="url(#mask1_4347_21393)">
<path d="M2465.71 92.123C2333.41 93.7699 2084.54 111.079 1860.38 126.668C1655.29 140.934 1470.88 153.758 1415.43 151.827C1300.73 147.888 1193.31 130.584 1087.57 109.776C1048.44 102.08 1009.51 93.8881 970.541 85.6864C963.741 84.2555 956.94 82.8243 950.138 81.3954C930.391 77.2674 910.613 73.1828 890.8 69.1419C822.032 55.2212 752.484 42.3595 680.619 33.2456C571.78 19.6225 458.344 14.8528 344.792 19.1175C251.915 22.1866 199.893 26.5598 107.174 40.6315C58.3728 47.744 10.5488 56.4949 -35.9503 66.8149L0.660252 1409.77H2465.71V92.123Z" fill="#0D3D38"/>
</g>
</g>
</svg>
